<?xml version="1.0" encoding="utf-8"?>
<!-- Generator: Adobe Illustrator 26.1.0, SVG Export Plug-In . SVG Version: 6.00 Build 0)  -->
<svg version="1.1" id="Layer_1" xmlns="http://www.w3.org/2000/svg" xmlns:xlink="http://www.w3.org/1999/xlink" x="0px" y="0px"
	 viewBox="0 0 404 171.67" style="enable-background:new 0 0 404 171.67;" xml:space="preserve">
<g>
	<path d="M4.43,171.67L37.51,0.42h38.57l32.88,171.24H76.71l-6.11-37.63H43.62l-6.53,37.63H4.43z M46.79,112.68h20.44L56.9,43.55
		L46.79,112.68z"/>
	<path d="M126.24,171.67V0.42h34.77v147.56h40.04v23.68H126.24z"/>
	<path d="M217.49,171.67V0.42h74.39v24.1h-39.62v45.45h30.56v24.31h-30.56v53.7h40.04v23.68H217.49z"/>
	<path d="M298.63,171.67l33.72-91.54l-32.46-79.7h32.88L353,49.68l17.07-49.26h29.29l-31.19,87.73l34.14,83.51h-32.46l-22.34-53.91
		l-19.6,53.91H298.63z"/>
</g>
</svg>
